<svg xmlns="http://www.w3.org/2000/svg" viewBox="0 0 219.04 294.15"><defs><style>.cls-1,.cls-3{fill:#bf984e;}.cls-2{fill:#fff;stroke:#000;}.cls-2,.cls-3{stroke-miterlimit:10;}.cls-3{stroke:#fff;}.cls-4{fill:#020873;}</style></defs><title>bluesplat</title><g id="Layer_2" data-name="Layer 2"><rect class="cls-1" x="0.66" y="12.1" width="8.53" height="281.56"/><rect class="cls-1" x="10.19" y="208.68" width="56.18" height="10.84"/><polygon class="cls-2" points="204.8 208.66 64.88 219.52 0.66 12.82 144.92 0.53 204.8 208.66"/><rect class="cls-3" x="53.59" y="211.15" width="7.02" height="82.51"/><rect class="cls-1" x="53.59" y="194.23" width="151.72" height="33.83"/><polygon class="cls-1" points="219.03 290.52 212.33 293.03 191.83 214.28 198.54 211.77 219.03 290.52"/></g><g id="Layer_1" data-name="Layer 1"><path class="cls-4" d="M324.24,301.05a34.54,34.54,0,0,0,18-7.21c7.69-5.95,21.17-11.68,33.82,6.16,15,21.21,6.44,32.54,2.07,36.43a37.56,37.56,0,0,0-6,6.66c-6.34,9.18-16.24,28.25,4.48,35.85a35.25,35.25,0,0,1,15.81,11.68c12.51,16.29,32.71,47.62,3.71,48.36-26.31.67-35.41-15-38.55-25.4a36.15,36.15,0,0,0-9.64-15.6c-7.58-7.29-16.54-19.22-7.31-28.91,13.2-13.87-10.83-33.59-14.78-36.67-.49-.38-1-.77-1.43-1.18C319.23,326.71,294,303.8,313.83,302Z" transform="translate(-257.34 -259.47)"/></g></svg>