<svg xmlns="http://www.w3.org/2000/svg" viewBox="0 0 219.04 294.15"><defs><style>.cls-1,.cls-3{fill:#bf984e;}.cls-2{fill:#fff;stroke:#000;}.cls-2,.cls-3{stroke-miterlimit:10;}.cls-3{stroke:#fff;}.cls-4{fill:#038c17;}</style></defs><title>greensplat</title><g id="Layer_2" data-name="Layer 2"><rect class="cls-1" x="0.66" y="12.1" width="8.53" height="281.56"/><rect class="cls-1" x="10.19" y="208.68" width="56.18" height="10.84"/><polygon class="cls-2" points="204.8 208.66 64.88 219.52 0.66 12.82 144.92 0.53 204.8 208.66"/><rect class="cls-3" x="53.59" y="211.15" width="7.02" height="82.51"/><rect class="cls-1" x="53.59" y="194.23" width="151.72" height="33.83"/><polygon class="cls-1" points="219.03 290.52 212.33 293.03 191.83 214.28 198.54 211.77 219.03 290.52"/></g><g id="Layer_1" data-name="Layer 1"><path class="cls-4" d="M179.22,118.94a13.49,13.49,0,0,0,.69-20c-9.45-9-23.82-15.9-34.89,9.34-13.41,30.54-5.22,43.86-.13,48.69a6.82,6.82,0,0,1,2,6.2c-3.54,18.49,20.82,28.47,20.82,28.47s20.11,10.91,18.45-16.92c-.41-6.93.26-12.19,1.5-16.19a13.46,13.46,0,0,0-8.89-16.72c-6.86-2.18-12.26-5.35-10.4-9.79C170.37,127.31,174.86,122.66,179.22,118.94Z" transform="translate(-57.34 -25.47)"/></g></svg>