<svg xmlns="http://www.w3.org/2000/svg" viewBox="0 0 219.04 294.15"><defs><style>.cls-1,.cls-3{fill:#bf984e;}.cls-2{fill:#fff;stroke:#000;}.cls-2,.cls-3{stroke-miterlimit:10;}.cls-3{stroke:#fff;}.cls-4{fill:#f36a20;}</style></defs><title>orangesplat</title><g id="Layer_2" data-name="Layer 2"><rect class="cls-1" x="0.66" y="12.1" width="8.53" height="281.56"/><rect class="cls-1" x="10.19" y="208.68" width="56.18" height="10.84"/><polygon class="cls-2" points="204.8 208.66 64.88 219.52 0.66 12.82 144.92 0.53 204.8 208.66"/><rect class="cls-3" x="53.59" y="211.15" width="7.02" height="82.51"/><rect class="cls-1" x="53.59" y="194.23" width="151.72" height="33.83"/><polygon class="cls-1" points="219.03 290.52 212.33 293.03 191.83 214.28 198.54 211.77 219.03 290.52"/></g><g id="Layer_1" data-name="Layer 1"><path class="cls-4" d="M164.33,186.12a24.43,24.43,0,0,0,12.38-4.76c5.29-3.91,14.58-7.69,23.29,4.06,10.35,14,4.43,21.46,1.42,24a25.09,25.09,0,0,0-4.11,4.38c-4.37,6.06-11.19,18.63,3.08,23.63a24.29,24.29,0,0,1,10.89,7.7c8.62,10.74,22.53,31.39,2.56,31.88-18.13.44-24.39-9.89-26.55-16.74A23.77,23.77,0,0,0,180.65,250c-5.22-4.81-11.39-12.67-5-19.06,9.09-9.14-7.46-22.14-10.17-24.17q-.51-.37-1-.78c-3.57-3-20.95-18.07-7.29-19.26Z" transform="translate(-74.34 -117.47)"/></g></svg>