<svg xmlns="http://www.w3.org/2000/svg" viewBox="0 0 194.04 260.6"><defs><style>.cls-1,.cls-3{fill:#bf984e;}.cls-2{fill:#fff;stroke:#000;}.cls-2,.cls-3{stroke-miterlimit:10;}.cls-3{stroke:#fff;}.cls-4{fill:#7d3fa6;}</style></defs><title>purplesplat</title><g id="Layer_2" data-name="Layer 2"><rect class="cls-1" x="0.66" y="10.77" width="7.55" height="249.32"/><rect class="cls-1" x="9.1" y="184.85" width="49.75" height="9.6"/><polygon class="cls-2" points="181.43 184.83 57.53 194.45 0.66 11.42 128.4 0.53 181.43 184.83"/><rect class="cls-3" x="47.53" y="187.03" width="6.22" height="73.06"/><rect class="cls-1" x="47.53" y="172.05" width="134.35" height="29.96"/><polygon class="cls-1" points="194.03 257.32 188.1 259.55 169.95 189.81 175.88 187.58 194.03 257.32"/></g><g id="Layer_1" data-name="Layer 1"><path class="cls-4" d="M183.13,193a22.06,22.06,0,0,0,11.18-4.29c4.78-3.54,13.16-6.95,21,3.66,9.35,12.62,4,19.37,1.29,21.68a22.81,22.81,0,0,0-3.71,4c-3.95,5.47-10.1,16.82,2.78,21.34a21.87,21.87,0,0,1,9.83,6.95c7.78,9.7,20.34,28.34,2.31,28.78-16.36.4-22-8.93-24-15.11a21.52,21.52,0,0,0-6-9.29c-4.72-4.34-10.29-11.44-4.55-17.2,8.21-8.26-6.73-20-9.19-21.82-.3-.23-.6-.46-.89-.71-3.23-2.68-18.91-16.32-6.58-17.39Z" transform="translate(-106.34 -133.02)"/></g></svg>