<svg xmlns="http://www.w3.org/2000/svg" viewBox="0 0 100.54 143.49"><defs><style>.cls-1{fill:#f20530;}</style></defs><title>Asset 1</title><g id="Layer_2" data-name="Layer 2"><g id="Layer_2-2" data-name="Layer 2"><path class="cls-1" d="M26.08,37.4l-1.31-2.07C16.67,22.54,22.71,5.26,37.2.9,44.89-1.41,53.75.25,62.42,11.47,85.54,41.38,104.57,27.83,86.9,49.56c-13.26,16.31-2.73,30.32,3.36,36.32A22.73,22.73,0,0,1,96,95.43c4.29,13.94,11.47,45.82-11.85,47.94-14.43,1.31-23.31-8.13-28.64-18.25a23.36,23.36,0,0,0-28.13-11c-10.32,3.43-21.55,3-26.18-11.51C-3.68,87.15,7,76.42,18.42,69.65A23.1,23.1,0,0,0,26.08,37.4Z"/></g></g></svg>