<svg xmlns="http://www.w3.org/2000/svg" viewBox="0 0 268.86 339.09"><defs><style>.cls-1,.cls-3{fill:#bf984e;}.cls-2{fill:#fff;stroke:#000;}.cls-2,.cls-3{stroke-miterlimit:10;}.cls-3{stroke:#fff;}.cls-4{fill:#f20530;}</style></defs><title>redsplat</title><g id="Layer_1" data-name="Layer 1"><rect class="cls-1" x="0.67" y="13.87" width="10.47" height="324.72"/><rect class="cls-1" x="12.38" y="240.59" width="68.99" height="12.5"/><polygon class="cls-2" points="251.38 240.56 79.54 253.09 0.68 14.71 177.83 0.53 251.38 240.56"/><rect class="cls-3" x="65.67" y="243.43" width="8.62" height="95.16"/><rect class="cls-1" x="65.67" y="223.92" width="186.32" height="39.02"/><polygon class="cls-1" points="268.86 334.98 260.62 337.88 235.45 247.05 243.68 244.15 268.86 334.98"/></g><g id="Layer_2" data-name="Layer 2"><path class="cls-4" d="M340.15,260,338.84,258c-8.1-12.78-2.06-30.07,12.43-34.42,7.69-2.31,16.55-.66,25.22,10.56C399.6,264,418.64,250.46,401,272.2c-13.26,16.3-2.73,30.32,3.37,36.31a22.83,22.83,0,0,1,5.76,9.55c4.3,13.95,11.48,45.83-11.85,47.95-14.42,1.31-23.3-8.13-28.63-18.25a23.38,23.38,0,0,0-28.14-11c-10.32,3.43-21.55,3-26.18-11.52-4.9-15.43,5.74-26.15,17.19-32.92A23.11,23.11,0,0,0,340.15,260Z" transform="translate(-251.74 -171.03)"/></g></svg>