<svg xmlns="http://www.w3.org/2000/svg" viewBox="0 0 193.61 260.03"><defs><style>.cls-1,.cls-3{fill:#bf984e;}.cls-2{fill:#fff;stroke:#000;}.cls-2,.cls-3{stroke-miterlimit:10;}.cls-3{stroke:#fff;}.cls-4{fill:#f2cb05;}</style></defs><title>yellowsplat</title><g id="Layer_2" data-name="Layer 2"><rect class="cls-1" x="0.66" y="10.75" width="7.53" height="248.78"/><rect class="cls-1" x="9.08" y="184.45" width="49.64" height="9.58"/><polygon class="cls-2" points="181.04 184.43 57.4 194.03 0.66 11.39 128.13 0.53 181.04 184.43"/><rect class="cls-3" x="47.42" y="186.63" width="6.2" height="72.9"/><rect class="cls-1" x="47.42" y="171.68" width="134.06" height="29.89"/><polygon class="cls-1" points="193.62 256.76 187.69 258.99 169.58 189.4 175.5 187.18 193.62 256.76"/></g><g id="Layer_1" data-name="Layer 1"><path class="cls-4" d="M156.15,88.38c-9.35-8.07,14.71-26.89,31,0,12.84,21.13,2.07,26.16-3.13,27.35a15.58,15.58,0,0,0-7,3.56c-3.7,3.34-6.62,8.74,4.61,13.6,11.79,5.11,4.91,18-1.08,26a15.48,15.48,0,0,1-15,6.06c-9.14-1.51-21.66-5.41-20.09-15.4,2.09-13.18-11.15-16-15.19-16.57a16.19,16.19,0,0,1-3.07-.75c-6-2.13-23-9.72-5.69-22.72C142.26,94,167.59,98.27,156.15,88.38Z" transform="translate(-69.76 -21.47)"/></g></svg>