<svg xmlns="http://www.w3.org/2000/svg" viewBox="0 0 1440 936"><defs><style>.cls-1{fill:#ce904d;}.cls-2{fill:#fff;stroke:#000;stroke-miterlimit:10;}.cls-3{fill:#2511ea;}.cls-4{fill:#ef0f0f;}.cls-5{fill:#f5df45;}</style></defs><title>primary palette</title><g id="Layer_3" data-name="Layer 3"><rect class="cls-1" width="1440" height="936"/></g><g id="Layer_1" data-name="Layer 1"><path class="cls-2" d="M475.85,579c41.59,16.89,88.93,11.29,125.93-14.13,49.85-34.27,135.58-72.74,166.72,38.67,21.11,75.53,95,63.91,167.59,30.28C1033.9,588.44,1030.74,478,979.67,383,945.5,319.5,828.29,255.89,732.5,246.5c-191.25-18.75-255.94,82.91-263.28,95.69-.52.92-1.08,1.81-1.67,2.68C456.11,361.62,347.45,526.8,475.85,579Z"/></g><g id="Layer_2" data-name="Layer 2"><circle class="cls-3" cx="903" cy="502" r="50"/><circle class="cls-4" cx="508" cy="439" r="50"/><circle class="cls-5" cx="736" cy="332" r="50"/></g></svg>